PathFileType	4	(X/Y/Z)	C:/Users/opensim2020/Desktop/walking_exp_matlab/subject02_walking10_straight_02.trc																																																																																																																															
DataRate	CameraRate	NumFrames	NumMarkers	Units	OrigDataRate	OrigDataStartFrame	OrigNumFrames																																																																																																																											
100	100	4	43	mm	100	1645	280																																																																																																																											
Frame#	Time	LFHD			RFHD			LBHD			RBHD			C7			T10			CLAV			STRN			RBAK			LSHO			LUPA			LELB			LFRM			LWRA			LWRB			LFIN			RSHO			RUPA			RELB			RFRM			RWRA			RWRB			RFIN			LASI			RASI			LPSI			RPSI			LTHI			LKNE			LTIB			LANK			LHEE			LTOE			RTHI			RKNE			RTIB			RANK			RHEE			RTOE			*39			*40			*41			*42		
		X1	Y1	Z1	X2	Y2	Z2	X3	Y3	Z3	X4	Y4	Z4	X5	Y5	Z5	X6	Y6	Z6	X7	Y7	Z7	X8	Y8	Z8	X9	Y9	Z9	X10	Y10	Z10	X11	Y11	Z11	X12	Y12	Z12	X13	Y13	Z13	X14	Y14	Z14	X15	Y15	Z15	X16	Y16	Z16	X17	Y17	Z17	X18	Y18	Z18	X19	Y19	Z19	X20	Y20	Z20	X21	Y21	Z21	X22	Y22	Z22	X23	Y23	Z23	X24	Y24	Z24	X25	Y25	Z25	X26	Y26	Z26	X27	Y27	Z27	X28	Y28	Z28	X29	Y29	Z29	X30	Y30	Z30	X31	Y31	Z31	X32	Y32	Z32	X33	Y33	Z33	X34	Y34	Z34	X35	Y35	Z35	X36	Y36	Z36	X37	Y37	Z37	X38	Y38	Z38	X39	Y39	Z39	X40	Y40	Z40	X41	Y41	Z41	X42	Y42	Z42	X43	Y43	Z43
																																																																																																																																		
246	2.45	815.03918	1703.79016	1012.08008	804.13568	1677.55212	1152.36816	676.27289	1649.00757	993.29041	653.20007	1622.8241	1132.64722	608.76593	1499.88794	1054.29309	557.79303	1220.51855	1055.61572	748.30768	1431.29651	1045.50073	802.07208	1260.74951	1050.40625	548.21179	1320.20349	1111.58569	687.04364	1480.34778	875.69031	712.23596	1287.97192	779.29633	748.95715	1152.65039	754.41138	813.61578	1035.64343	746.11389	910.97833	945.36639	789.42358	874.06934	928.64514	749.57825	921.55084	882.14893	749.01331	678.38599	1457.38306	1241.75549	634.09723	1267.72681	1318.45044	639.10004	1122.51062	1338.14844	665.3429	1004.9303	1360.6947	716.13715	878.52759	1348.88818	666.1192	875.16632	1374.80566	703.23962	812.34705	1381.8324	789.76544	961.96552	914.99066	807.28815	958.86908	1172.11035	583.91016	1001.94995	1011.83484	584.59509	1001.14008	1125.77332	667.11304	659.5412	871.08691	593.21313	469.10086	899.7561	477.21936	311.3154	899.88367	408.65265	95.41849	930.27612	368.19247	75.83392	982.24011	553.73981	30.55291	914.30322	799.39813	661.96497	1266.2323	861.92114	463.00333	1237.19031	871.10376	275.65417	1255.83911	909.22473	84.75659	1236.70154	895.14368	23.84592	1182.77576	1068.95605	62.81197	1256.08826	717.73541	1777.71558	1099.87781	-2845.96362	1034.13806	3357.04272	NaN	NaN	NaN	NaN	NaN	NaN
247	2.46	822.25934	1703.45483	1014.76532	811.71906	1676.89844	1155.24268	683.48328	1647.771	996.3504	660.50104	1621.33398	1135.07251	616.27374	1498.08899	1057.2594	566.69275	1219.19104	1059.4187	756.5188	1430.48975	1048.38586	810.82245	1260.24976	1053.33167	556.7132	1318.90808	1114.89075	694.35992	1479.06213	878.70294	718.58398	1286.54333	782.56592	754.15204	1150.90051	757.81512	817.72687	1033.28235	749.10754	914.8974	942.23425	792.18445	877.5993	925.9339	752.21533	924.99579	878.78595	751.76514	686.5202	1456.37183	1244.71326	642.70074	1266.47925	1321.18359	647.71301	1121.28088	1341.33765	674.05542	1003.85797	1363.73596	724.77698	877.48145	1352.06909	674.86462	874.09406	1378.14587	712.01575	810.99329	1384.89551	799.297	960.90918	918.09552	817.48138	958.19464	1175.11633	593.55554	1000.5448	1016.08691	594.83911	999.789	1130.0061	675.42493	659.08026	873.35608	600.29639	469.1561	901.35992	481.80933	313.30319	901.03333	410.05698	98.24019	929.99341	369.24823	79.72681	981.8172	553.8175	30.51908	914.11615	809.77136	661.47327	1268.98584	870.02319	461.65823	1240.10315	877.66461	273.81763	1254.73145	915.41284	85.0163	1238.91687	898.39526	27.22729	1184.46179	1075.44836	54.52185	1257.49878	724.99323	1776.75464	1102.92639	-2845.98242	1034.32837	3357.07373	NaN	NaN	NaN	NaN	NaN	NaN
248	2.47	829.88953	1703.19202	1018.00214	819.31677	1676.71082	1158.24536	691.21906	1647.45276	999.26636	668.34137	1620.78101	1138.33606	623.72607	1497.00342	1060.57288	575.61304	1218.34473	1063.21875	764.54315	1430.11292	1051.3512	819.40137	1260.18127	1056.3429	565.35553	1317.70654	1118.07141	701.60095	1477.94263	881.61938	724.79987	1285.33936	785.87799	759.75714	1149.177	761.20422	821.76581	1031.05457	752.07751	917.6264	938.58142	794.84668	880.78992	922.9751	754.83453	926.70807	875.05481	754.5838	694.75275	1455.48047	1248.073	651.41718	1265.38184	1324.48914	656.82422	1119.72815	1343.60999	682.79297	1002.75629	1367.28943	733.64362	876.42767	1355.26074	683.7229	873.06067	1381.33899	720.8219	810.17072	1388.21008	809.21375	959.90277	921.22791	827.63995	957.71899	1178.30298	603.23035	999.22552	1020.34106	605.16968	998.78204	1134.3208	683.82172	658.55951	875.56427	607.77118	469.39551	902.96008	486.50027	315.54514	902.27203	411.70032	101.50851	929.73212	370.94281	83.45361	981.79498	553.91766	30.50378	913.9823	818.99042	661.75409	1271.91357	878.81116	461.64807	1243.64148	885.51746	274.12122	1257.76624	922.02924	84.61959	1242.91406	901.30011	29.3053	1187.73413	1081.72546	49.35595	1257.15063	732.60504	1776.57874	1106.34607	-2846.53613	1034.43347	3355.40161	NaN	NaN	NaN	NaN	NaN	NaN
249	2.48	837.09125	1703.36816	1020.82141	826.89325	1676.56128	1161.16382	698.63501	1647.58057	1002.38843	675.97284	1620.77014	1141.17969	631.55902	1496.40869	1063.83203	584.48993	1217.4613	1066.7251	772.48535	1430.04993	1054.37061	828.21185	1260.29041	1059.3949	574.03619	1316.80237	1121.06567	708.76129	1477.05371	884.51984	731.32678	1284.03979	789.36584	764.2782	1147.4458	764.69818	826.27722	1028.71082	755.17731	920.51611	935.08368	797.51843	883.14905	920.05145	757.44751	928.7417	871.492	757.25732	702.99817	1454.54248	1251.39038	660.37769	1264.43823	1327.89697	665.79993	1119.05554	1347.5636	692.05188	1001.91913	1370.12695	742.75171	875.6778	1358.49219	692.82343	872.04272	1384.20532	729.86774	809.42749	1391.50085	819.16461	958.89215	924.56329	837.74872	957.47424	1181.52319	612.97168	998.12939	1024.46021	615.55414	998.63116	1138.57141	692.04266	658.29712	878.00024	615.77582	469.77148	904.48102	492.10046	318.13629	903.50214	413.69858	105.18625	929.56531	373.01389	87.9892	981.6665	554.05334	30.51068	913.87048	827.49878	662.11127	1275.17151	888.66754	462.8772	1247.08765	894.89252	275.73486	1263.63293	927.05371	84.11848	1245.66931	902.80273	30.87095	1190.27649	1085.82678	43.99384	1256.99414	739.97083	1776.35779	1109.26001	NaN	NaN	NaN	NaN	NaN	NaN	NaN	NaN	NaN
